#!OML:ASF E:\id_vita\Project 1\Capture day 1\Session 1\Female.ASF
:FULLY-SPECIFIED
:DEGREES
1633
root 8.87725 19.733 -0.952979 825.485 244.122 682.137
lowerback 14.0919 -0.423463 -8.70199
upperback 3.7644 -1.74442 3.79209
thorax -3.49844 -0.892799 9.3341
lowerneck -3.12557 -8.28684 -8.42641
upperneck -3.61495 -10.8499 23.2017
head 1.35016 -5.50682 8.13421
rclavicle 3.02153e-014 -4.37326e-015
rhumerus 0.104163 -0.553565 -71.4247
rradius 52.4522
rwrist 0.178028
rhand -34.226 21.422
rfingers 7.12502
rthumb -7.39776 -8.42863
lclavicle 3.02153e-014 -4.37326e-015
lhumerus 8.06151 4.65034 98.0735
lradius 45.8544
lwrist -3.99921
lhand -16.2664 15.3239
lfingers 7.12502
lthumb 9.94313 45.0691
rfemur -90.6558 -9.40172 29.5089
rtibia 117.871
rfoot -0.0297364 -8.03158
rtoes 32.1052
lfemur -63.1442 -5.50731 -26.5251
ltibia 52.8718
lfoot 9.80389 -6.51528
ltoes -1.77268
1634
root 8.87877 19.7327 -0.962633 825.231 244.067 682.277
lowerback 14.2657 -0.36662 -8.85326
upperback 3.74448 -1.70963 3.7026
thorax -3.61974 -0.867044 9.32701
lowerneck -3.04132 -8.24238 -8.44555
upperneck -3.59308 -10.7856 22.9788
head 1.31632 -5.47392 8.07365
rclavicle 2.54444e-014 9.83984e-014
rhumerus -0.370293 -0.623455 -71.5891
rradius 52.9511
rwrist -0.0506445
rhand -34.2268 20.9861
rfingers 7.12502
rthumb -7.39853 -8.86456
lclavicle 2.54444e-014 9.83984e-014
lhumerus 7.20279 5.68068 97.9868
lradius 45.687
lwrist -3.66494
lhand -16.7365 12.6704
lfingers 7.12502
lthumb 9.48956 42.4367
rfemur -90.4968 -9.32945 29.3864
rtibia 117.846
rfoot -0.415376 -8.07886
rtoes 31.8658
lfemur -63.1346 -5.59336 -26.6769
ltibia 52.6477
lfoot 9.35115 -6.42999
ltoes -4.72046
1635
root 8.89148 19.7274 -0.974843 825.293 244.094 682.354
lowerback 14.3313 0.22235 -9.04932
upperback 3.73658 -0.977184 3.6111
thorax -3.82558 -0.493628 9.22445
lowerneck -3.35588 -8.70431 -7.3876
upperneck -3.97045 -11.3497 22.5043
head 1.25316 -5.76454 7.69446
rclavicle -5.08889e-014 -3.99557e-014
rhumerus -1.03971 -2.15335 -71.2978
rradius 53.2704
rwrist -0.259571
rhand -34.4166 20.929
rfingers 7.12502
rthumb -7.58167 -8.9151
lclavicle -5.08889e-014 -3.99557e-014
lhumerus 6.61293 4.83147 98.1761
lradius 45.1539
lwrist -4.24714
lhand -17.5107 11.2302
lfingers 7.12502
lthumb 8.74253 41.0291
rfemur -90.689 -9.01964 29.4136
rtibia 117.903
rfoot -0.00130771 -7.15835
rtoes 32.0001
lfemur -63.4057 -5.48457 -26.8344
ltibia 52.4054
lfoot 9.44345 -6.62687
ltoes -6.34357
1636
root 8.89929 19.7151 -0.983675 825.395 244.244 682.249
lowerback 14.3499 0.00234235 -8.95331
upperback 3.77147 -1.25481 3.57181
thorax -3.73961 -0.637363 9.16999
lowerneck -3.34596 -8.44396 -7.87933
upperneck -3.99409 -10.9968 22.7714
head 1.24021 -5.5936 7.88947
rclavicle 1.43125e-014 6.67916e-014
rhumerus -0.930259 -1.74713 -71.8522
rradius 53.3338
rwrist -0.296464
rhand -34.6278 21.3277
rfingers 7.12502
rthumb -7.78555 -8.50898
lclavicle 1.43125e-014 6.67916e-014
lhumerus 6.0101 6.11356 97.7028
lradius 44.8818
lwrist -5.17388
lhand -17.8321 11.2627
lfingers 7.12502
lthumb 8.43239 41.0744
rfemur -90.6803 -8.84401 29.5596
rtibia 117.976
rfoot 0.395785 -8.8455
rtoes 32.9176
lfemur -63.423 -5.47926 -26.8222
ltibia 52.2237
lfoot 8.66336 -6.78815
ltoes -4.42856
1637
root 8.90936 19.7022 -0.996056 825.928 244.256 681.873
lowerback 14.2637 -0.0785429 -9.07365
upperback 3.72913 -1.37029 3.52142
thorax -3.70985 -0.692022 9.20128
lowerneck -3.39134 -8.35553 -7.98058
upperneck -4.11592 -10.8621 22.8866
head 1.20687 -5.53563 7.95413
rclavicle 4.6118e-014 1.05356e-014
rhumerus -1.11886 -1.79918 -72.2559
rradius 53.5971
rwrist -0.260042
rhand -34.7772 21.4655
rfingers 7.12502
rthumb -7.92976 -8.36581
lclavicle 4.6118e-014 1.05356e-014
lhumerus 5.45403 6.87895 97.3111
lradius 44.4884
lwrist -5.7289
lhand -17.4923 11.5731
lfingers 7.12502
lthumb 8.76031 41.3713
rfemur -90.8988 -8.80149 29.6488
rtibia 118.102
rfoot 5.31022 -9.06358
rtoes 34.3784
lfemur -63.6683 -5.68312 -26.8106
ltibia 52.0898
lfoot 9.04958 -6.43772
ltoes -4.3788
1638
root 8.92458 19.692 -0.996358 826.485 244.267 681.563
lowerback 14.2374 -0.142453 -9.07759
upperback 3.66626 -1.45153 3.48529
thorax -3.7456 -0.725626 9.17719
lowerneck -3.31086 -8.27273 -8.04555
upperneck -4.54677 -10.6881 22.9766
head 1.05378 -5.48604 8.01997
rclavicle -7.95139e-015 2.65378e-014
rhumerus -1.21186 -1.68799 -72.2276
rradius 53.8783
rwrist -0.596231
rhand -34.8979 21.4318
rfingers 7.12502
rthumb -8.04619 -8.39503
lclavicle -7.95139e-015 2.65378e-014
lhumerus 5.03418 7.45705 96.9759
lradius 43.8117
lwrist -5.97769
lhand -17.3082 11.7976
lfingers 7.12502
lthumb 8.93794 41.5883
rfemur -91.3499 -8.76381 29.6614
rtibia 118.261
rfoot 2.37342 -9.03098
rtoes 33.4576
lfemur -64.1739 -5.93567 -26.8104
ltibia 52.0099
lfoot 9.05894 -6.88287
ltoes -3.45522
1639
root 8.93076 19.6828 -0.997366 826.827 244.307 681.163
lowerback 14.5056 -0.364465 -8.85865
upperback 3.74098 -1.73904 3.39706
thorax -3.75858 -0.871748 9.00689
lowerneck -3.46586 -8.07969 -8.34359
upperneck -4.83662 -10.3858 23.1926
head 0.983394 -5.35299 8.16209
rclavicle -5.725e-014 -3.91606e-014
rhumerus -1.17054 -1.47948 -72.7027
rradius 54.2812
rwrist -0.466541
rhand -34.9617 21.391
rfingers 7.12502
rthumb -8.10783 -8.43348
lclavicle -5.725e-014 -3.91606e-014
lhumerus 4.76983 8.43283 96.5223
lradius 43.0308
lwrist -6.05078
lhand -17.2908 12.3527
lfingers 7.12502
lthumb 8.95478 42.1427
rfemur -91.3675 -8.86831 29.635
rtibia 118.387
rfoot 4.44052 -9.43548
rtoes 34.4707
lfemur -64.2393 -6.00683 -27.0994
ltibia 51.9398
lfoot 9.14944 -7.30407
ltoes -5.28371
1640
root 8.9399 19.6737 -1.00502 826.679 244.403 681.425
lowerback 14.5989 0.0195779 -9.14722
upperback 3.70722 -1.28522 3.43884
thorax -3.93498 -0.635536 9.15291
lowerneck -3.35931 -8.23835 -7.78709
upperneck -5.31065 -10.5324 22.9051
head 0.800852 -5.46608 7.98007
rclavicle 9.22361e-014 1.309e-013
rhumerus -1.82026 -2.26044 -72.4908
rradius 54.9736
rwrist -0.395723
rhand -34.9561 21.046
rfingers 7.12502
rthumb -8.10244 -8.77867
lclavicle 9.22361e-014 1.309e-013
lhumerus 4.29582 8.35411 96.6983
lradius 42.2257
lwrist -5.9894
lhand -17.2365 13.1906
lfingers 7.12502
lthumb 9.00712 42.9783
rfemur -91.4587 -8.55847 29.6213
rtibia 118.469
rfoot -0.529575 -8.11628
rtoes 31.8837
lfemur -64.4539 -5.77984 -27.4049
ltibia 51.9269
lfoot 8.37382 -9.01347
ltoes -9.22153
1641
root 8.94197 19.6722 -1.01071 826.124 244.457 682.049
lowerback 14.6344 0.17416 -9.42334
upperback 3.80908 -1.12886 3.44192
thorax -3.87216 -0.567221 9.29136
lowerneck -3.43996 -8.17098 -7.57747
upperneck -5.62554 -10.3979 22.6974
head 0.677371 -5.42001 7.8918
rclavicle 5.88403e-014 6.4605e-015
rhumerus -1.85926 -2.43051 -72.5306
rradius 55.3372
rwrist -0.395732
rhand -34.9315 20.7115
rfingers 7.12502
rthumb -8.07863 -9.11412
lclavicle 5.88403e-014 6.4605e-015
lhumerus 4.06195 9.03074 96.6668
lradius 41.4096
lwrist -5.72988
lhand -17.5116 13.9577
lfingers 7.12502
lthumb 8.74168 43.7567
rfemur -91.4215 -8.23482 29.5399
rtibia 118.497
rfoot -0.0100233 -8.63405
rtoes 32.2095
lfemur -64.6095 -5.82734 -27.1931
ltibia 51.8379
lfoot 8.11599 -10.0395
ltoes -10.7639
1642
root 8.92573 19.6791 -1.01357 825.14 244.543 682.91
lowerback 14.8011 0.308004 -9.50716
upperback 4.04717 -0.989195 3.41211
thorax -3.73737 -0.521624 9.28427
lowerneck -3.69238 -8.1089 -7.35822
upperneck -5.90801 -10.2762 22.36
head 0.585397 -5.36841 7.75144
rclavicle 7.4743e-014 4.28381e-014
rhumerus -1.66968 -2.44816 -72.4579
rradius 55.659
rwrist -0.628566
rhand -34.7459 20.3873
rfingers 7.12502
rthumb -7.89957 -9.44512
lclavicle 7.4743e-014 4.28381e-014
lhumerus 4.04107 9.78819 96.5946
lradius 40.5445
lwrist -5.27528
lhand -17.8433 14.5954
lfingers 7.12502
lthumb 8.42155 44.4075
rfemur -91.0171 -8.03343 29.4087
rtibia 118.41
rfoot -0.0235105 -9.42481
rtoes 32.6384
lfemur -64.5665 -5.99988 -26.7602
ltibia 51.8049
lfoot 8.78257 -9.15033
ltoes -4.76297
1643
root 8.93986 19.656 -1.01572 824.932 244.71 683.177
lowerback 14.8832 0.298644 -9.53238
upperback 4.1076 -1.0155 3.38347
thorax -3.71091 -0.539881 9.27326
lowerneck -3.7528 -7.98849 -7.18124
upperneck -6.0386 -10.1019 22.1472
head 0.507267 -5.29102 7.66655
rclavicle 5.40694e-014 8.84592e-015
rhumerus -1.64821 -2.5175 -72.7754
rradius 55.9831
rwrist -0.610141
rhand -34.4479 20.1422
rfingers 7.12502
rthumb -7.61186 -9.70083
lclavicle 5.40694e-014 8.84592e-015
lhumerus 3.8181 10.5983 96.3111
lradius 39.8172
lwrist -5.01322
lhand -17.765 15.5286
lfingers 7.12502
lthumb 8.49712 45.3377
rfemur -91.0771 -7.69286 29.5138
rtibia 118.629
rfoot -0.0792061 -10.1142
rtoes 32.9439
lfemur -64.5685 -5.77363 -26.9533
ltibia 51.6703
lfoot 8.6985 -8.65542
ltoes -4.59753
1644
root 8.95965 19.65 -1.02228 825.372 244.769 683.045
lowerback 14.901 0.756357 -9.82539
upperback 3.939 -0.458363 3.3949
thorax -4.02423 -0.235576 9.36553
lowerneck -3.41051 -8.25992 -6.26507
upperneck -6.56522 -10.4018 21.8163
head 0.265616 -5.50153 7.41985
rclavicle 5.24792e-014 2.08724e-014
rhumerus -2.39935 -3.86104 -72.4943
rradius 56.4962
rwrist -0.591236
rhand -34.2537 20.0138
rfingers 7.12502
rthumb -7.42442 -9.83592
lclavicle 5.24792e-014 2.08724e-014
lhumerus 3.49964 10.1683 96.6499
lradius 38.9409
lwrist -5.04996
lhand -17.3406 16.6858
lfingers 7.12502
lthumb 8.90666 46.4779
rfemur -91.4837 -7.44445 29.6394
rtibia 118.784
rfoot -0.141848 -10.4832
rtoes 33.1176
lfemur -65.1588 -5.51684 -27.466
ltibia 51.5667
lfoot 8.4046 -9.17043
ltoes -7.51545
1645
root 8.96495 19.6459 -1.01621 826.088 244.541 682.494
lowerback 14.94 0.171283 -9.64363
upperback 4.08262 -1.21073 3.17897
thorax -3.72593 -0.631698 9.14706
lowerneck -4.03919 -7.85008 -7.05501
upperneck -6.35361 -9.88346 22.4268
head 0.446436 -5.20664 7.74482
rclavicle 9.85972e-014 6.06293e-014
rhumerus -1.6454 -3.02682 -73.2849
rradius 56.6621
rwrist -0.676908
rhand -34.1755 20.0222
rfingers 7.12502
rthumb -7.34896 -9.8302
lclavicle 9.85972e-014 6.06293e-014
lhumerus 3.86027 12.0526 96.1821
lradius 38.1732
lwrist -4.90496
lhand -16.9138 17.7601
lfingers 7.12502
lthumb 9.31852 47.5342
rfemur -91.8401 -7.80341 29.5368
rtibia 118.968
rfoot -0.574143 -10.5764
rtoes 32.5561
lfemur -65.5655 -5.95752 -27.6856
ltibia 51.3986
lfoot 9.43301 -9.54935
ltoes -5.45115
1646
root 8.95999 19.6477 -1.02618 824.831 244.552 683.487
lowerback 15.5802 0.158274 -9.89215
upperback 4.22034 -1.33792 3.09189
thorax -3.88957 -0.693865 9.23993
lowerneck -4.05223 -7.58567 -7.27793
upperneck -6.419 -9.51865 22.4043
head 0.3859 -5.02956 7.80048
rclavicle 9.22361e-014 8.29926e-014
rhumerus -1.38002 -2.48051 -73.6328
rradius 56.9499
rwrist -0.92952
rhand -34.0183 19.9957
rfingers 7.12502
rthumb -7.19724 -9.8619
lclavicle 9.22361e-014 8.29926e-014
lhumerus 3.91125 13.3233 95.921
lradius 37.4783
lwrist -4.35366
lhand -16.1815 18.6926
lfingers 7.12502
lthumb 10.025 48.4338
rfemur -91.2721 -7.4116 29.353
rtibia 118.977
rfoot -0.935152 -10.4357
rtoes 32.0934
lfemur -65.3164 -5.83774 -27.4996
ltibia 51.2447
lfoot 9.26273 -9.49191
ltoes -9.07989
